<svg width="120" height="120" viewBox="0 0 120 120" fill="none" xmlns="http://www.w3.org/2000/svg">
  <circle cx="60" cy="60" r="58" stroke="black" stroke-width="2"/>
  <path d="M60 30C52.3992 30 45.5968 34.3125 42.375 40.5C39.1532 46.6875 39.1532 54.3125 42.375 60.5C44.5992 64.875 49.5 68.0625 49.5 73.125V75C49.5 76.6569 50.8431 78 52.5 78H67.5C69.1569 78 70.5 76.6569 70.5 75V73.125C70.5 68.0625 75.4008 64.875 77.625 60.5C80.8468 54.3125 80.8468 46.6875 77.625 40.5C74.4032 34.3125 67.6008 30 60 30ZM67.5 73.125H52.5V71.25H67.5V73.125ZM71.3508 56.8125C69.75 59.8125 66.75 62.25 65.0625 65.625H54.9375C53.25 62.25 50.25 59.8125 48.6492 56.8125C46.6492 52.875 46.6492 48.1875 48.6492 44.25C50.6492 40.3125 55.0508 37.5 60 37.5C64.9492 37.5 69.3508 40.3125 71.3508 44.25C73.3508 48.1875 73.3508 52.875 71.3508 56.8125Z" fill="black"/>
  <path d="M56.25 84.375H63.75V90H56.25V84.375Z" fill="black"/>
</svg> 