<svg width="25" height="24" viewBox="0 0 25 24" fill="none" xmlns="http://www.w3.org/2000/svg">
<path fill-rule="evenodd" clip-rule="evenodd" d="M15.4195 2.78751C13.4665 2.7375 11.5325 2.7375 9.57949 2.78751H9.52148C7.99648 2.82752 6.76952 2.85747 5.78652 3.02752C4.75652 3.20757 3.91947 3.54764 3.21347 4.25784C2.50947 4.96803 2.1675 5.78826 1.9915 6.80854C1.8235 7.7688 1.7985 8.96917 1.7665 10.4496V10.5096C1.7445 11.4998 1.7445 12.5002 1.7665 13.4904V13.5504C1.7995 15.0308 1.82448 16.2312 1.99248 17.1915C2.16848 18.2117 2.51055 19.032 3.21455 19.7422C3.92055 20.4524 4.7575 20.7924 5.7875 20.9725C6.7705 21.1425 7.99755 21.1725 9.52255 21.2125H9.58046C11.5335 21.2625 13.4675 21.2625 15.4205 21.2125H15.4785C17.0035 21.1725 18.2305 21.1425 19.2135 20.9725C20.2435 20.7924 21.0805 20.4524 21.7865 19.7422C22.4905 19.032 22.8325 18.2117 23.0085 17.1915C23.1765 16.2312 23.2015 15.0308 23.2335 13.5504V13.4904C23.2555 12.5002 23.2555 11.4998 23.2335 10.5096V10.4496C23.2015 8.96917 23.1765 7.7688 23.0085 6.80854C22.8325 5.78826 22.4905 4.96803 21.7865 4.25784C21.0805 3.54764 20.2435 3.20757 19.2135 3.02752C18.2305 2.85747 17.0035 2.82752 15.4785 2.78751H15.4205H15.4195ZM7.88154 7.84886C7.52454 7.6388 7.06449 7.75886 6.85449 8.11895C6.64349 8.46905 6.76148 8.92916 7.11748 9.14922L10.0595 10.8897C10.9305 11.3999 11.6825 11.7499 12.4995 11.7499C13.3165 11.7499 14.0685 11.3999 14.9395 10.8897L17.8815 9.14922C18.2375 8.92916 18.3565 8.46905 18.1455 8.11895C17.9345 7.75886 17.4745 7.6388 17.1175 7.84886L14.1755 9.58938C13.3315 10.0895 12.8825 10.2495 12.4995 10.2495C12.1165 10.2495 11.6675 10.0895 10.8235 9.58938L7.88154 7.84886Z" fill="#757575"/>
</svg>
