<svg width="25" height="24" viewBox="0 0 25 24" fill="none" xmlns="http://www.w3.org/2000/svg">
<path fill-rule="evenodd" clip-rule="evenodd" d="M17.812 1.93059C16.4686 1.74998 14.7479 1.74999 12.5572 1.75H12.4428C10.2521 1.74999 8.53144 1.74998 7.18802 1.93059C5.81137 2.11568 4.71911 2.50272 3.86091 3.36091C3.00272 4.21911 2.61568 5.31137 2.43059 6.68802C2.24998 8.03144 2.24999 9.75212 2.25 11.9428V12.0572C2.24999 14.2479 2.24998 15.9686 2.43059 17.312C2.61568 18.6886 3.00272 19.7809 3.86091 20.6391C4.71911 21.4973 5.81137 21.8843 7.18802 22.0694C8.53144 22.25 10.2521 22.25 12.4428 22.25H12.5572C14.7479 22.25 16.4686 22.25 17.812 22.0694C19.1886 21.8843 20.2809 21.4973 21.1391 20.6391C21.9973 19.7809 22.3843 18.6886 22.5694 17.312C22.75 15.9686 22.75 14.2479 22.75 12.0572V11.9428C22.75 9.75214 22.75 8.03144 22.5694 6.68802C22.3843 5.31137 21.9973 4.21911 21.1391 3.36091C20.2809 2.50272 19.1886 2.11568 17.812 1.93059ZM7.5 6.25C7.21836 6.25 6.96045 6.40779 6.83223 6.65856C6.70401 6.90933 6.72709 7.21079 6.89199 7.43912L10.7116 12.7278L6.96967 16.4697C6.67678 16.7626 6.67678 17.2374 6.96967 17.5303C7.26257 17.8232 7.73744 17.8232 8.03033 17.5303L11.6012 13.9595L14.1142 17.4391C14.2552 17.6344 14.4814 17.75 14.7222 17.75H17.5C17.7816 17.75 18.0396 17.5922 18.1678 17.3414C18.296 17.0907 18.2729 16.7892 18.108 16.5609L14.2884 11.2722L18.0303 7.53033C18.3232 7.23744 18.3232 6.76256 18.0303 6.46967C17.7374 6.17678 17.2626 6.17678 16.9697 6.46967L13.3988 10.0405L10.8858 6.56088C10.7448 6.36565 10.5186 6.25 10.2778 6.25H7.5Z" fill="#757575"/>
</svg>
