<svg width="100" height="100" viewBox="0 0 29 28" fill="none" xmlns="http://www.w3.org/2000/svg">
  <rect x="0.5" width="28" height="28" rx="5.6" fill="white"/>
  <g clip-path="url(#clip0_4483_113371)">
    <path d="M24.7816 10.5131C24.8621 11.4283 24.8559 12.3491 24.763 13.2631C24.6471 14.6071 24.4243 15.409 24.1035 16.2692C23.7889 17.1234 23.3958 17.9463 22.9293 18.7272L22.9026 18.7705C22.763 18.9997 22.6605 19.1677 22.6055 19.2469L22.5721 19.2095C22.5194 19.1543 22.4406 19.0714 22.3188 18.9497C22.1413 18.7705 21.6415 18.1149 21.5019 17.9133C21.299 17.6241 21.1173 17.3204 20.9583 17.0046L20.884 16.8426L20.7444 16.9531C20.6666 17.0217 20.6054 17.1072 20.5653 17.203C20.5251 17.2988 20.5072 17.4026 20.5126 17.5064C20.5126 17.7072 20.5617 17.9402 20.6827 18.3658C20.8418 18.8937 21.0549 19.4037 21.3185 19.8875C21.3511 19.9495 21.3846 20.01 21.4157 20.066C21.6022 20.4027 21.6742 20.5565 21.5858 20.6207C21.574 20.6294 21.5596 20.6336 21.545 20.6327C21.4343 20.6327 21.2301 20.5267 20.9984 20.349C20.7926 20.1914 20.2416 19.7225 19.5746 18.7854C19.0734 18.0838 18.6376 17.3372 18.2727 16.5551L18.2148 16.4327C18.1584 16.4525 18.104 16.4775 18.0522 16.5074C17.9969 16.5383 17.9509 16.5837 17.9192 16.6388C17.8394 16.8024 17.8134 16.9872 17.8449 17.1667C17.9058 17.6654 18.197 18.427 18.4317 18.9766C18.8283 19.9047 19.5576 20.9485 20.0997 21.6646C20.1205 21.6922 20.145 21.7213 20.174 21.7512C20.2029 21.7811 20.2483 21.8415 20.275 21.8789C20.2275 21.9274 20.1168 22.0185 19.9831 22.129L19.7833 22.2918C19.0641 22.8892 18.2908 23.4177 17.4736 23.8702C16.7963 24.251 15.4179 24.9544 14.5029 25.2C13.5887 24.9544 12.211 24.251 11.5322 23.8702C10.7142 23.4181 9.9404 22.8897 9.22096 22.2918L9.01672 22.1245C8.88304 22.0148 8.77238 21.9229 8.72782 21.8766C8.74936 21.849 8.88007 21.6922 8.90161 21.6646C9.44302 20.9538 10.1723 19.9107 10.5697 18.9766C10.8036 18.4278 11.0955 17.6684 11.1571 17.1659C11.1871 16.9882 11.1611 16.8055 11.0829 16.6432C11.0444 16.5731 10.9841 16.5175 10.9113 16.485L10.7873 16.4327L10.7286 16.5544C10.3662 17.3363 9.93316 18.0832 9.43485 18.7854C8.76644 19.7218 8.21388 20.1907 8.00742 20.3467C7.77942 20.5214 7.57072 20.6304 7.46081 20.6304C7.44895 20.6313 7.43709 20.6287 7.42665 20.623L7.40585 20.6066C7.33975 20.5364 7.41476 20.3826 7.59226 20.0615L7.68807 19.8853C7.94961 19.4019 8.16162 18.893 8.32083 18.3666C8.44263 17.9395 8.48868 17.7065 8.49165 17.5064C8.49716 17.4025 8.4791 17.2987 8.43883 17.2028C8.39855 17.107 8.33713 17.0216 8.25919 16.9531L8.11956 16.8426L8.0453 17.0046C7.88736 17.3205 7.7064 17.6243 7.50388 17.9133C7.36277 18.1157 6.86295 18.7727 6.68694 18.9497C6.56514 19.0714 6.48641 19.155 6.43368 19.2103C6.42106 19.2245 6.40992 19.2357 6.40026 19.2454C6.34085 19.1647 6.23316 18.9885 6.08611 18.7474C5.61349 17.9606 5.21564 17.1309 4.89782 16.2692C4.5755 15.4083 4.3527 14.6048 4.2361 13.2631C4.14283 12.3484 4.13686 11.4267 4.21827 10.5109C4.3215 9.43418 4.58961 8.42021 4.97358 7.6489C5.51573 6.56101 6.19157 5.91663 7.03822 5.6777C7.33653 5.59317 7.64477 5.54923 7.95469 5.54703C8.62756 5.54703 9.16451 5.77103 9.55145 6.20783C9.65938 6.33574 9.73541 6.48767 9.77326 6.65103C9.8111 6.81438 9.80966 6.98446 9.76905 7.14714C9.69479 7.44581 9.48758 7.63397 9.21427 7.76314C9.1663 7.78511 9.11663 7.80309 9.06574 7.8169C9.08626 7.8722 9.11371 7.92464 9.14743 7.97295C9.41777 8.41125 9.94433 8.64495 10.6677 8.64495C10.8416 8.64429 11.0153 8.63182 11.1876 8.60762C12.2162 8.45978 12.6796 7.80645 12.8512 6.54831C12.9173 6.05701 12.9804 5.6441 12.6655 5.12965C12.4427 4.77125 11.8151 4.55994 11.3547 4.56143C10.9432 4.56143 10.7249 4.67119 10.5934 4.80933C10.5875 4.78917 10.5585 4.75482 10.5511 4.73466C10.4852 4.58871 10.4685 4.42511 10.5036 4.26874C10.5607 4.03128 10.6906 3.81788 10.8749 3.65871C11.1471 3.42435 11.4739 3.26304 11.8248 3.18981C12.0455 3.13801 12.2711 3.10997 12.4977 3.10618C12.5504 3.10618 12.7249 3.10618 12.8029 3.11141C12.8363 3.11141 12.8423 3.09946 12.8668 3.06885C13.0153 2.88591 13.2544 2.78586 13.6837 2.79557C14.0157 2.80303 14.4583 2.82021 14.8066 2.93221C15.0372 3.00393 15.2555 3.11042 15.4543 3.24805C15.6933 3.42085 15.8745 3.66245 15.9741 3.94095C16.1252 4.42449 16.2058 4.9275 16.2133 5.43429C16.237 6.5961 16.4012 7.30095 16.725 7.72207C17.2449 8.40005 17.6905 8.54341 18.2319 8.57626H18.2906C19.3088 8.57626 19.6801 8.25146 19.8457 8.00431C19.8914 7.94008 19.9338 7.87354 19.9727 7.80495C19.9009 7.79231 19.8301 7.77409 19.7611 7.75045C19.6332 7.70275 19.5189 7.62423 19.4283 7.52178C19.3376 7.41932 19.2734 7.29606 19.2412 7.16282C19.197 6.99833 19.1929 6.82554 19.2294 6.65915C19.2658 6.49275 19.3417 6.33767 19.4506 6.20709C19.9334 5.64335 20.6523 5.55077 21.0377 5.54554H21.0808C21.3773 5.54474 21.6721 5.58981 21.9549 5.67919C22.3083 5.78586 22.6393 5.95667 22.9316 6.18319C23.4596 6.60805 23.7931 7.18821 24.024 7.64517C24.405 8.40005 24.688 9.47002 24.7816 10.5131Z" fill="#00AEEF"/>
  </g>
  <defs>
    <clipPath id="clip0_4483_113371">
      <rect width="20.6769" height="22.4" fill="white" transform="translate(4.16162 2.80005)"/>
    </clipPath>
  </defs>
</svg>
