<svg width="100%" height="100%" viewBox="0 0 29 28" fill="none" xmlns="http://www.w3.org/2000/svg">
  <rect x="0.5" width="28" height="28" rx="5.6" fill="#5B1A4C"/>
  <g clip-path="url(#clip0)">
    <g clip-path="url(#clip1)">
      <path d="M14.7755 20.9737C12.1891 20.9737 11.4174 19.7185 11.4174 17.8604C11.4174 17.1077 11.5419 15.7018 11.5419 14.5712C11.5419 13.0145 11.5419 11.7846 11.4672 10.3786C10.9694 10.3786 10.4478 10.3786 9.94995 10.4038V9.87613C12.3373 8.87224 13.9292 7.64223 15.7452 5.35693L16.1932 5.43232C16.0937 6.2352 16.0439 7.16484 16.019 8.1436H19.0784L18.283 10.5031C17.5125 10.478 16.7409 10.4529 15.9703 10.4277V12.8375C15.9703 14.0927 15.9455 15.4986 16.0201 16.7789C16.0699 17.7073 16.3935 18.0088 17.0645 18.0088C18.0092 18.0088 18.2332 17.005 18.3079 14.8704H18.731C18.6315 19.1635 17.7116 20.9714 14.7767 20.9714L14.7755 20.9737Z" fill="white"/>
    </g>
  </g>
  <defs>
    <clipPath id="clip0">
      <rect width="9.1" height="17.5" fill="white" transform="translate(9.94995 5.25)"/>
    </clipPath>
    <clipPath id="clip1">
      <rect width="116.2" height="17.5" fill="white" transform="translate(9.94995 3.5)"/>
    </clipPath>
  </defs>
</svg>
